<svg xmlns="http://www.w3.org/2000/svg" viewBox="0 0 1000 500" fill="none">
  <rect width="1000" height="500" fill="#0a0a14"/>
  <!-- Grid lines -->
  <g stroke="rgba(99,102,241,0.04)" stroke-width="0.5">
    <line x1="0" y1="250" x2="1000" y2="250"/>
    <line x1="0" y1="125" x2="1000" y2="125"/>
    <line x1="0" y1="375" x2="1000" y2="375"/>
    <line x1="500" y1="0" x2="500" y2="500"/>
    <line x1="250" y1="0" x2="250" y2="500"/>
    <line x1="750" y1="0" x2="750" y2="500"/>
  </g>
  <!-- North America -->
  <path d="M120,80 L180,60 L220,70 L250,90 L240,120 L260,140 L250,170 L230,180 L200,200 L180,220 L160,240 L140,250 L130,240 L120,250 L100,240 L90,220 L85,200 L100,180 L110,160 L100,140 L105,120 L110,100 Z" fill="rgba(99,102,241,0.08)" stroke="rgba(99,102,241,0.12)" stroke-width="1"/>
  <!-- Greenland -->
  <path d="M290,50 L320,40 L340,50 L350,70 L340,90 L310,95 L290,80 Z" fill="rgba(99,102,241,0.06)" stroke="rgba(99,102,241,0.1)" stroke-width="0.8"/>
  <!-- South America -->
  <path d="M200,260 L220,250 L240,260 L260,280 L270,310 L265,340 L250,370 L230,400 L210,420 L200,440 L190,430 L185,400 L180,370 L175,340 L180,310 L185,290 L190,270 Z" fill="rgba(99,102,241,0.08)" stroke="rgba(99,102,241,0.12)" stroke-width="1"/>
  <!-- Europe -->
  <path d="M440,80 L460,70 L480,75 L500,80 L520,85 L530,100 L520,120 L510,130 L490,140 L470,135 L460,120 L450,110 L440,100 Z" fill="rgba(99,102,241,0.08)" stroke="rgba(99,102,241,0.12)" stroke-width="1"/>
  <!-- UK/Ireland -->
  <path d="M420,90 L430,85 L435,95 L428,105 L420,100 Z" fill="rgba(99,102,241,0.07)" stroke="rgba(99,102,241,0.1)" stroke-width="0.8"/>
  <!-- Africa -->
  <path d="M440,160 L480,150 L520,155 L540,170 L550,200 L555,230 L550,260 L540,290 L520,320 L500,340 L480,350 L460,340 L450,310 L440,280 L435,250 L430,220 L435,190 Z" fill="rgba(99,102,241,0.08)" stroke="rgba(99,102,241,0.12)" stroke-width="1"/>
  <!-- Asia -->
  <path d="M530,60 L580,50 L640,55 L700,60 L750,70 L790,80 L810,100 L800,120 L780,140 L760,150 L730,155 L700,160 L670,170 L640,175 L610,170 L580,160 L560,150 L540,140 L530,120 L525,100 L530,80 Z" fill="rgba(99,102,241,0.08)" stroke="rgba(99,102,241,0.12)" stroke-width="1"/>
  <!-- India -->
  <path d="M640,180 L670,175 L690,190 L700,220 L690,250 L670,260 L650,250 L640,230 L635,210 Z" fill="rgba(99,102,241,0.07)" stroke="rgba(99,102,241,0.1)" stroke-width="0.8"/>
  <!-- Southeast Asia -->
  <path d="M720,170 L750,165 L770,175 L780,190 L775,210 L760,220 L740,215 L730,200 L720,185 Z" fill="rgba(99,102,241,0.06)" stroke="rgba(99,102,241,0.1)" stroke-width="0.8"/>
  <!-- Japan -->
  <path d="M820,90 L830,80 L840,85 L838,100 L830,110 L822,105 Z" fill="rgba(99,102,241,0.07)" stroke="rgba(99,102,241,0.12)" stroke-width="0.8"/>
  <!-- Australia -->
  <path d="M760,310 L800,300 L840,305 L870,320 L880,345 L870,370 L845,385 L810,390 L780,380 L760,360 L755,340 Z" fill="rgba(99,102,241,0.08)" stroke="rgba(99,102,241,0.12)" stroke-width="1"/>
  <!-- New Zealand -->
  <path d="M900,380 L910,370 L915,385 L910,400 L900,395 Z" fill="rgba(99,102,241,0.06)" stroke="rgba(99,102,241,0.1)" stroke-width="0.8"/>
  <!-- Indonesia -->
  <path d="M740,250 L760,245 L780,248 L790,255 L785,262 L765,265 L745,260 Z" fill="rgba(99,102,241,0.05)" stroke="rgba(99,102,241,0.08)" stroke-width="0.6"/>
  <!-- Tropic lines -->
  <line x1="0" y1="170" x2="1000" y2="170" stroke="rgba(99,102,241,0.025)" stroke-width="0.5" stroke-dasharray="8,4"/>
  <line x1="0" y1="330" x2="1000" y2="330" stroke="rgba(99,102,241,0.025)" stroke-width="0.5" stroke-dasharray="8,4"/>
</svg>
